<svg width="645" height="952" viewBox="0 0 645 952" fill="none" xmlns="http://www.w3.org/2000/svg">
<path d="M509.47 501.965C509.577 493.843 509.626 486.186 509.624 478.528C509.624 478.154 509.165 477.779 508.143 476.221C506.139 480.589 504.032 484.05 502.906 487.804C490.165 530.3 477.576 572.842 464.935 615.368C464.485 616.883 463.913 618.362 463.128 620.639C458.555 606.688 454.227 593.385 449.831 580.105C445.528 567.109 441.483 554.013 436.683 541.202C434.084 534.264 430.703 527.557 422.001 525.763C407.988 522.874 387.542 537.974 387.993 552.305C388.384 564.762 390.681 577.159 392.069 589.013C390.644 587.029 388.528 584.213 386.547 581.305C357.079 538.057 327.633 494.793 298.17 451.542C294.111 445.583 294.405 445.519 298.84 440.111C314.45 421.075 330.074 402.041 345.249 382.659C368.209 353.332 390.772 323.693 413.581 294.246C416.008 291.111 418.946 288.372 422.104 284.955C433.7 294.203 445.296 303.303 456.731 312.602C479.201 330.873 501.619 349.207 523.976 367.616C531.297 373.644 538.412 379.925 545.53 386.195C559.039 398.095 563.118 414.577 566.976 431.08C572.806 456.014 578.629 480.953 584.117 505.964C589.216 529.203 593.938 552.526 598.704 575.837C602.975 596.732 607.174 617.642 611.23 638.58C614.594 655.942 617.829 673.33 620.891 690.748C623.7 706.722 626.473 722.712 628.757 738.767C630.813 753.219 632.287 767.757 633.827 782.278C635.247 795.664 636.499 809.071 637.666 822.482C638.82 835.739 640.055 848.998 640.755 862.283C642.068 887.228 643.086 912.189 644.063 937.15C644.236 941.575 643.613 946.031 643.341 950.76C628.769 950.76 614.79 950.835 600.816 950.616C599.717 950.599 598.013 948.712 597.659 947.404C585.876 903.947 574.262 860.444 562.52 816.975C560.33 808.865 557.846 800.826 555.211 792.849C554.263 789.978 554.753 788.445 556.889 786.109C565.389 776.808 574.361 767.713 581.382 757.34C592.116 741.481 592.048 724.604 581.18 708.462C577.11 702.419 572.585 696.593 567.63 691.26C562.307 685.533 555.795 687.311 552.973 694.614C550.784 700.278 551.676 705.814 554.123 710.99C556.201 715.386 555.249 718.09 551.68 721.275C543.732 728.366 536.285 736.018 528.597 743.403C527.295 744.654 525.81 745.716 524.4 746.874C520.207 740.891 518.985 735.31 521.05 727.857C530.116 695.139 538.398 662.2 546.699 629.275C549.205 619.334 550.866 609.18 552.877 599.116C552.993 598.537 552.776 597.891 552.714 597.276C552.259 597.07 551.804 596.864 551.348 596.658C536.645 624.048 521.941 651.437 506.719 679.794C504.999 675.962 503.804 672.992 502.356 670.152C500.478 666.469 499.043 662.267 496.27 659.396C490.683 653.612 490.847 647.452 492.141 640.18C495.246 622.741 497.746 605.188 500.216 587.643C502.252 573.183 504.039 558.685 505.663 544.173C506.847 533.596 507.584 522.97 508.521 512.366C508.813 509.054 509.109 505.742 509.47 501.965Z" fill="#FDFDFD"/>
<path d="M412.569 53.702C419.382 67.861 421.837 82.6926 422.812 97.7732C423.649 110.727 423.823 123.723 424.321 136.699C424.381 138.279 424.628 139.852 424.944 142.961C428.618 139.859 431.346 137.607 434.017 135.289C438.242 131.62 439.921 131.936 443.051 136.547C448.771 144.974 448.682 154.19 446.175 163.354C442.833 175.569 439.255 187.778 434.712 199.578C432.927 204.212 428.494 207.966 424.833 211.695C421.632 214.957 418.819 213.545 417.109 209.727C415.669 206.511 414.417 203.211 412.573 198.704C404.261 218.866 402.629 240.36 389.498 257.961C387.653 256.57 386.107 255.667 384.886 254.441C373.134 242.642 361.244 230.971 349.8 218.878C343.638 212.367 337.954 208.622 327.807 210.666C318.311 212.579 307.974 210.602 298.037 209.912C293.981 209.63 291.241 210.809 288.391 213.652C274.034 227.977 259.455 242.081 244.941 256.248C244.61 256.571 244.122 256.732 242.854 257.454C236.115 240.672 229.461 224.102 222.505 206.782C220.091 209.924 218.128 212.479 215.908 215.368C206.112 209.531 199.702 201.436 195.502 191.389C189.242 176.412 188.157 160.538 187.472 144.624C187.237 139.156 191.076 135.655 195.251 133.261C196.804 132.37 200.202 133.381 202.046 134.601C205.293 136.75 207.992 139.727 211.809 143.156C212.296 138.655 212.886 135.144 213.021 131.615C213.518 118.642 213.448 105.633 214.345 92.69C216.776 57.6108 234.054 31.7415 264.496 14.702C285.624 2.87572 308.708 -1.95714 332.594 0.717661C367.79 4.65888 395.693 20.8417 412.569 53.702Z" fill="#FEFEFE"/>
<path d="M4.3643 613.14C5.2729 608.832 6.65125 604.971 6.72434 601.085C6.85383 594.201 6.75678 587.215 5.72407 580.428C4.22492 570.577 4.07633 561.028 7.69679 551.597C10.6263 543.966 11.0162 536.228 9.12141 528.185C6.43263 516.771 7.16487 505.513 11.4902 494.457C13.9944 488.056 13.4558 481.425 11.0032 475.047C6.3744 463.011 6.88029 451.334 13.2596 440.056C16.1283 434.984 16.9087 429.78 14.6328 424.344C8.82255 410.466 9.58698 397.19 16.8837 383.857C18.6803 380.574 18.7438 375.22 17.4613 371.57C12.125 356.387 15.5019 343.598 26.1806 332.123C28.0714 330.092 29.9422 327.713 30.8526 325.151C36.7192 308.637 50.2356 304.436 64.1781 306.065C77.0784 307.572 89.0741 306.652 101.356 302.895C105.955 301.488 111.635 301.667 116.34 302.926C129.169 306.359 141.616 305.303 154.221 302.161C164.14 299.689 173.914 298.474 183.602 304.139C186.008 305.545 190.738 304.443 193.724 303.049C198.333 300.897 202.257 297.322 206.693 294.729C208.167 293.867 210.917 293.359 212.009 294.158C213.244 295.062 214.227 298.035 213.643 299.376C211.951 303.257 209.779 307.057 207.151 310.378C195.719 324.823 182.613 338.179 175.473 355.488C172.011 363.883 166.501 368.865 158.633 372.994C149.444 377.817 141.01 384.157 132.531 390.233C122.511 397.414 117.166 407.896 113.713 419.367C111.213 427.671 107.17 434.734 100.766 440.756C92.2203 448.79 89.7106 459.827 87.9138 470.844C86.7749 477.827 84.4226 484.087 79.1705 488.731C72.0222 495.052 67.8325 502.541 66.2826 512.06C64.8895 520.616 60.7769 528.535 61.3797 537.73C61.5885 540.915 58.0685 544.87 55.3815 547.625C44.8507 558.42 40.2256 571.955 37.0586 586.111C36.0628 590.562 35.8916 595.467 36.5951 599.968C37.7164 607.143 37.1587 613.732 33.9122 620.276C22.3833 643.519 17.5718 668.516 16.2396 694.115C14.9199 719.472 8.21082 743.625 2.02076 767.985C1.57316 767.834 1.05488 767.749 1.05125 767.646C0.6269 755.668 -0.0763465 743.686 0.00675251 731.711C0.0405665 726.836 2.219 722.011 2.66035 717.096C3.48737 707.884 4.47956 698.59 4.05363 689.392C3.65391 680.761 2.03184 672.205 4.60966 663.686C7.67878 653.544 6.45762 643.545 4.63432 633.314C3.49384 626.915 4.30866 620.167 4.3643 613.14Z" fill="#FDFDFD"/>
<path d="M174.395 427.877C176.885 420.503 179.269 413.503 181.652 406.503C182.076 406.426 182.499 406.349 182.923 406.271C188.182 422.585 193.488 438.884 198.571 455.252C198.835 456.102 197.407 457.77 196.412 458.663C193.525 461.255 189.382 463.047 187.622 466.205C160.112 515.567 132.933 565.112 105.595 614.569C99.615 625.388 97.2081 637.093 95.8739 649.202C94.2192 664.219 92.0858 679.183 90.4715 694.204C88.98 708.082 87.8808 722.002 86.6468 735.907C85.603 747.667 84.5771 759.429 83.6089 771.195C82.2455 787.764 80.9585 804.339 79.61 820.909C78.1256 839.148 76.6499 857.387 75.0921 875.62C73.9319 889.2 72.7507 902.78 71.3856 916.34C70.2552 927.568 68.8424 938.767 67.5071 950.393C50.3784 950.393 33.0015 950.393 15.1191 950.393C17.6154 937.98 20.4486 925.662 22.5138 913.217C25.8221 893.281 29.0374 873.312 31.5246 853.262C34.2854 831.007 36.0572 808.631 38.498 786.335C40.7175 766.06 42.8252 745.756 45.7845 725.583C48.4 707.754 51.41 689.921 55.5106 672.386C62.8685 640.921 71.1754 609.677 79.1844 577.95C80.4873 578.741 80.8879 578.969 81.2735 579.22C90.4947 585.225 92.9403 584.401 96.2009 573.834C101.644 556.195 106.966 538.519 112.35 520.861C112.483 520.427 112.743 520.033 113.126 519.244C114.6 521.372 115.894 523.242 117.366 525.366C122.999 522.833 125.742 517.844 127.849 512.753C133.868 498.203 139.485 483.487 145.241 468.886C147.011 471.024 148.833 475.706 153.766 472.486C155.422 471.405 157.221 469.892 157.953 468.155C163.537 454.912 168.874 441.565 174.395 427.877Z" fill="#FCFCFC"/>
<path d="M526.53 342.644C508.575 331.266 490.875 320.159 473.274 308.896C470.17 306.91 467.482 304.273 463.985 301.436C473.918 297.81 482.457 300.047 490.801 302.34C500.141 304.907 509.31 306.188 518.637 302.696C529.247 298.723 539.786 299.708 550.207 303.34C561.163 307.159 572.543 308.103 583.985 308.511C592.002 308.798 598.349 312.349 603.56 318.014C608.167 323.022 612.375 328.398 616.722 333.643C624.398 342.904 626.213 353.333 623.513 364.965C622.743 368.278 622.517 372.497 623.914 375.399C630.227 388.515 628.622 401.819 626.319 415.351C625.12 422.391 624.393 429.567 628.085 436.252C633.076 445.288 634.183 454.941 631.341 464.668C628.261 475.207 630.383 485.226 631.986 495.615C633.385 504.685 632.605 514.072 633.141 523.298C633.638 531.835 633.862 540.496 635.566 548.825C637.372 557.651 637.42 565.997 635.648 574.852C634.315 581.52 635.255 588.655 635.313 595.581C635.331 597.668 635.783 599.751 636.036 601.836C635.58 601.937 635.124 602.038 634.669 602.138C631.67 590.413 628.356 578.758 625.731 566.949C617.849 531.486 610.602 495.878 602.369 460.498C598.079 442.059 592.379 423.94 587.056 405.752C582.336 389.623 571.568 377.686 558.894 367.41C548.44 358.934 537.528 351.022 526.53 342.644Z" fill="#FCFCFC"/>
<path d="M208.54 535.996C206.326 536.366 204.341 536.364 202.812 537.199C201.188 538.086 198.606 540.29 198.875 541.001C199.699 543.183 201.334 545.618 203.327 546.636C205.167 547.577 207.878 546.78 210.204 546.81C223.339 546.981 236.472 547.19 249.607 547.337C252.916 547.374 254.332 549.283 254.849 552.222C255.426 555.494 256.112 558.755 256.518 562.049C256.97 565.711 255.46 567.657 251.468 567.609C242.137 567.498 232.803 567.514 223.471 567.621C220.322 567.657 217.182 568.174 214.032 568.379C210.575 568.605 208.083 569.89 208.593 573.824C209.07 577.502 211.481 579.255 215.166 579.262C226.332 579.285 237.498 579.348 248.663 579.315C257.738 579.289 259.239 580.73 260.028 589.677C260.463 594.606 261.376 599.493 262.161 605.011C253.225 605.011 244.342 605.074 235.462 604.982C231.633 604.942 227.81 604.504 223.98 604.389C218.347 604.22 216.294 605.899 215.58 611.288C214.947 616.067 214.04 620.867 214.037 625.657C214.033 632.141 210.595 636.322 205.78 639.616C181.665 656.114 157.495 672.532 133.274 688.873C129.503 691.417 125.368 693.42 120.179 696.367C120.752 685.484 120.65 675.828 121.91 666.353C123.564 653.918 126.33 641.632 128.532 629.267C129.29 625.015 131.635 622.143 135.312 620.034C138.187 618.385 140.66 615.862 143.684 614.683C151.937 611.468 154.379 604.964 155.847 596.95C159.448 577.286 163.582 557.717 167.736 538.159C169.002 532.2 172.566 528.04 178.464 525.398C197.443 516.897 217.191 511.966 237.989 511.6C247.54 511.432 253.313 519.215 250.572 528.541C250.201 529.804 247.645 530.977 245.962 531.214C233.651 532.947 221.305 534.43 208.54 535.996Z" fill="#FCFCFC"/>
<path d="M260.228 818.851C272.187 863.283 284.024 907.33 295.843 951.312C272.239 951.312 249.377 951.312 225.206 951.312C228.71 895.809 232.16 841.169 235.603 786.631C241.603 786.631 246.239 786.631 251.403 786.631C254.321 797.304 257.213 807.884 260.228 818.851Z" fill="#FCFCFC"/>
<path d="M313.743 820.524C326.584 864.018 339.309 907.12 352.101 950.448C341.412 950.448 330.339 950.448 319.401 950.448C305.08 898.911 290.718 847.224 276.268 795.22C283.467 792.529 290.848 789.732 298.258 787.016C301.908 785.678 303.657 787.361 304.682 790.87C307.542 800.66 310.63 810.383 313.743 820.524Z" fill="#FBFBFB"/>
<path d="M436.084 823.082C451.754 866.034 466.21 909.029 484.269 950.802C473.431 950.802 462.446 950.802 451.555 950.802C435.694 906.722 419.973 863.03 404.123 818.978C412.038 816.994 419.003 815.607 425.717 813.444C430.682 811.845 432.864 813.954 434.356 818.059C434.916 819.601 435.397 821.172 436.084 823.082Z" fill="#FBFBFB"/>
<path d="M420.875 608.368C416.581 592.019 412.411 576.054 408.304 560.073C407.896 558.485 407.917 556.792 407.67 555.158C406.979 550.59 409.067 547.412 413.329 546.67C417.413 545.958 419.441 549.126 420.708 552.676C423.754 561.211 426.817 569.741 429.951 578.244C440.039 605.618 450.162 632.979 460.514 661.003C453.647 663.38 446.31 665.921 438.999 668.453C432.959 648.398 426.987 628.573 420.875 608.368Z" fill="#F9F9F9"/>
<path d="M146.972 856.603C139.873 852.618 138.636 847.501 140.707 836.875C143.996 819.999 146.805 803.03 149.849 786.105C150.516 782.391 151.314 778.701 152.187 774.325C160.854 776.732 169.034 779.003 177.54 781.365C176.906 790.3 176.555 799.048 175.601 807.731C174.333 819.281 172.797 830.812 170.996 842.291C169.591 851.242 163.065 856.622 153.787 857.087C151.642 857.194 149.476 856.904 146.972 856.603Z" fill="#FBFBFB"/>
<path d="M541.825 950.774C537.672 950.774 534.011 950.774 529.948 950.774C525.539 936.886 521.116 922.945 516.686 909.005C514.593 902.42 512.393 895.865 510.462 889.232C510.087 887.946 510.177 885.722 510.992 885.019C517.907 879.054 525.039 873.342 532.898 866.904C542.043 895.061 551.003 922.646 560.139 950.774C553.852 950.774 548.085 950.774 541.825 950.774Z" fill="#FBFBFB"/>
<path d="M283.633 718.422C288.63 734.887 293.588 750.942 298.354 767.054C298.602 767.892 297.458 769.875 296.554 770.205C289.746 772.692 282.869 775.007 275.943 777.145C272.538 778.196 270.366 776.989 269.398 773.17C264.252 752.869 258.928 732.612 253.644 712.346C252.531 708.078 251.326 703.835 249.978 698.897C257.687 697.987 265.037 697.14 272.38 696.244C275.422 695.873 276.944 697.34 277.797 700.124C279.633 706.116 281.626 712.06 283.633 718.422Z" fill="#FAFAFA"/>
<path d="M197.801 753.023C198.546 740.312 199.271 728.058 200.007 715.621C212.421 718.359 224.305 720.895 236.127 723.698C237.612 724.05 239.629 725.616 239.932 726.953C242.726 739.257 245.196 751.634 247.827 764.311C230.95 762.582 214.206 760.867 197.178 759.123C197.405 757.002 197.593 755.24 197.801 753.023Z" fill="#FAFAFA"/>
<path d="M359.628 753.543C362.962 761.06 366.17 768.221 369.765 776.246C363.875 776.246 359.259 776.391 354.656 776.216C345.186 775.857 335.727 775.207 326.257 774.917C321.268 774.764 318.677 772.281 317.611 767.648C314.957 756.11 312.253 744.583 309.37 732.198C317.232 733.448 324.683 734.613 332.127 735.823C337.674 736.725 343.259 737.476 348.726 738.734C350.623 739.17 352.79 740.555 353.828 742.158C356.065 745.611 357.65 749.486 359.628 753.543Z" fill="#FAFAFA"/>
<path d="M378.765 662.292C380.241 665.069 381.521 667.526 382.998 670.362C374.603 674.209 366.411 677.963 359.101 681.313C351.903 660.728 344.823 640.477 337.706 620.123C344.886 617.17 352.143 614.186 359.562 611.135C365.853 627.96 372.211 644.966 378.765 662.292Z" fill="#FAFAFA"/>
<path d="M487.264 816.078C496.59 814.48 505.482 812.888 515.423 811.108C519.217 823.399 523.215 836.208 527.046 849.066C527.329 850.017 526.768 851.781 525.99 852.397C518.593 858.254 511.064 863.944 502.46 870.535C496.2 852.294 490.066 834.422 483.773 816.085C485.011 816.085 485.92 816.085 487.264 816.078Z" fill="#FAFAFA"/>
<path d="M438.485 787.091C419.891 797.785 400.821 806.037 379.13 804.237C370.668 803.535 362.169 801.524 356.279 794.392C361.25 784.691 370.539 781.374 379.323 786.184C384.48 789.008 389.653 789.585 395.021 787.421C406.296 782.874 417.605 778.391 428.709 773.453C434.922 770.691 437.63 770.587 440.939 774.733C444.077 778.667 443.526 781.722 438.485 787.091Z" fill="#F9F9F9"/>
<path d="M302.806 669.45C282.112 673.399 261.859 677.497 241.511 681.048C234.017 682.355 226.248 682.023 218.7 683.101C213.634 683.824 212.537 680.899 211.977 677.312C211.358 673.341 213.168 670.209 217.209 669.593C236.182 666.701 255.206 664.152 274.184 661.292C284.98 659.664 295.742 657.79 306.475 655.785C310.351 655.06 313.431 655.964 314.511 659.64C315.604 663.361 313.169 665.903 309.776 667.265C307.647 668.119 305.403 668.686 302.806 669.45Z" fill="#F7F7F7"/>
<path d="M237.053 315.897C237.284 327.055 237.472 337.858 237.849 348.655C238.034 353.945 236.003 357.638 231.63 360.761C220.576 368.656 209.807 376.949 197.964 385.8C196.749 379.264 195.453 373.433 194.714 367.533C194.525 366.028 195.819 364.077 196.909 362.713C209.557 346.888 222.289 331.13 235.067 315.411C235.314 315.107 236.395 315.482 237.053 315.897Z" fill="#FAFAFA"/>
<path d="M490.619 749.583C491.817 752.849 492.829 755.774 493.938 758.981C485.282 762.194 476.982 765.275 467.844 768.666C462.826 753.191 457.835 737.8 452.542 721.48C459.91 719.002 466.815 716.505 473.863 714.513C474.823 714.241 477.15 716.217 477.737 717.616C482.126 728.092 486.236 738.685 490.619 749.583Z" fill="#F9F9F9"/>
<path d="M328.707 248.696C335.881 251.735 343.093 254.004 349.291 257.891C356.066 262.139 355.638 267.167 349.623 272.392C346.787 274.855 344.254 274.754 341.09 273.009C335.166 269.743 329.088 266.748 323.004 263.785C317.758 261.23 312.552 261.325 307.283 264.113C301.316 267.27 295.099 269.958 289.151 273.147C284.894 275.43 281.746 273.766 279.143 270.732C276.509 267.663 276.978 264.31 279.614 261.294C285.575 254.474 293.914 251.878 302.028 249.135C310.632 246.225 319.474 245.051 328.707 248.696Z" fill="#F9F9F9"/>
<path d="M406.718 738.303C409.363 745.966 411.896 753.241 414.691 761.27C406.785 764.322 398.997 767.404 391.124 770.253C390.335 770.538 388.356 769.661 388.069 768.895C382.994 755.377 378.095 741.793 373.046 727.912C382.581 725.592 391.453 723.433 400.928 721.127C402.862 726.845 404.734 732.38 406.718 738.303Z" fill="#FAFAFA"/>
<path d="M163.219 731.792C166.196 722.536 168.972 713.636 171.792 704.593C177.307 706.124 182.155 707.47 187.118 708.848C186.269 719.738 185.476 730.465 184.579 741.183C184.054 747.463 183.177 753.718 182.812 760.005C182.567 764.232 180.689 765.066 176.953 764.076C171.06 762.515 165.156 760.921 159.166 759.838C155.746 759.22 155.123 757.981 156.134 754.846C158.56 747.322 160.739 739.718 163.219 731.792Z" fill="#FAFAFA"/>
<path d="M316.759 364.409C327.706 354.232 338.386 344.288 349.065 334.343C349.541 334.643 350.017 334.943 350.493 335.243C347.677 339.818 345.36 344.807 341.962 348.898C322.202 372.687 302.189 396.265 282.254 419.909C281.937 420.285 281.535 420.588 280.221 421.809C277.329 416.374 274.275 411.38 272.099 406.028C271.545 404.665 273.287 401.604 274.808 400.28C288.597 388.28 302.571 376.492 316.759 364.409Z" fill="#F7F7F7"/>
<path d="M344.708 708.638C342.497 707.459 340.012 706.888 338.963 705.342C337.805 703.635 336.902 700.363 337.782 698.971C339.328 696.529 342.011 693.974 345.701 696.156C351.651 699.676 357.618 699.133 363.737 696.559C375.574 691.579 387.49 686.792 399.317 681.789C405.399 679.217 408.554 679.788 410.616 684.288C413.128 689.769 411.584 694.833 406.171 697.02C390.257 703.452 374.228 709.694 356.799 710.427C352.917 710.591 348.979 709.39 344.708 708.638Z" fill="#F7F7F7"/>
<path d="M246.879 441.469C240.517 445.755 234.515 449.932 228.396 453.929C224.288 456.613 222.368 455.999 220.125 451.694C219.975 451.406 219.966 451.047 219.83 450.749C214.946 440.113 215.035 440.234 224.285 433.334C234.803 425.489 245.138 417.4 256.431 408.744C259.424 415.346 262.395 421.508 264.898 427.855C265.254 428.757 263.659 431.028 262.425 431.853C257.462 435.17 252.286 438.167 246.879 441.469Z" fill="#F9F9F9"/>
<path d="M229.852 407.44C223.449 412.184 217.321 416.698 209.886 422.174C208.083 415.691 206.278 409.995 205.07 404.176C204.835 403.044 206.689 401.142 207.98 400.083C219.269 390.826 230.649 381.68 242.651 371.975C244.379 378.009 246.341 383.991 247.669 390.111C247.997 391.621 246.713 394.108 245.393 395.236C240.479 399.432 235.242 403.25 229.852 407.44Z" fill="#F9F9F9"/>
<path d="M436.673 686.088C449.372 682.499 461.684 678.924 474.064 675.607C477.762 674.617 481.469 674.92 483.325 679.177C484.945 682.892 484.012 686.355 480.761 688.374C467.548 696.576 453.935 704.041 437.873 704.637C429.816 704.937 426.996 700.237 430.796 693.121C432.163 690.563 434.447 688.494 436.673 686.088Z" fill="#F9F9F9"/>
<path d="M496.087 796.635C487.574 801.528 478.735 803.132 469.444 801.984C466.891 801.668 463.869 801.117 462.112 799.52C460.337 797.905 458.755 794.666 459.132 792.493C459.51 790.325 462.217 787.196 464.254 786.9C478.823 784.782 492.525 780.399 505.489 773.423C506.747 772.747 509.727 773.477 510.831 774.606C516.891 780.807 516.326 785.177 509.076 789.56C504.969 792.043 500.64 794.158 496.087 796.635Z" fill="#F8F8F8"/>
<path d="M304.848 510.464C310.338 506.615 310.844 506.679 314.474 511.898C316.739 515.154 318.895 518.484 321.581 522.499C307.505 532.026 293.595 541.441 279.123 551.236C277.149 548.137 274.95 545.268 273.389 542.086C271.459 538.153 273.368 533.873 278.226 530.262C286.075 524.429 293.966 518.654 301.834 512.846C302.767 512.156 303.663 511.414 304.848 510.464Z" fill="#F9F9F9"/>
<path d="M271.395 445.773C272.774 446.067 274.181 446.274 274.842 447.087C284.436 458.892 284.1 460.898 271.21 468.138C262.125 473.242 253.09 478.464 243.775 483.119C238.069 485.971 235.468 484.492 233.219 478.481C232.648 476.957 232.27 475.361 231.926 474.208C245.115 464.695 258.096 455.332 271.395 445.773Z" fill="#F8F8F8"/>
<path d="M313.274 550.967C319.202 546.656 324.832 542.55 331.331 537.81C334.001 542.054 336.822 546.074 339.017 550.411C339.462 551.29 337.927 553.909 336.656 554.802C326.332 562.052 315.853 569.081 305.423 576.18C303.397 577.559 301.38 578.951 298.975 580.6C295.766 576.309 292.698 572.207 289.312 567.679C297.284 562.118 305.131 556.645 313.274 550.967Z" fill="#F9F9F9"/>
<path d="M295.908 485.291C297.374 487.704 298.66 489.803 300.228 492.363C289.86 499.887 279.725 507.241 270.337 514.054C267.261 509.031 264.449 503.81 261.006 499.046C258.901 496.133 260.703 495.241 262.511 494.045C271.324 488.214 280.165 482.427 289.263 476.449C291.343 479.193 293.536 482.085 295.908 485.291Z" fill="#F9F9F9"/>
<path d="M357.427 576.004C345.788 584.802 334.436 593.458 322.771 601.672C318.6 604.609 314.315 602.365 309.252 595.62C320.512 587.466 331.8 579.352 343.022 571.148C351.127 565.223 351.728 565.285 357.078 573.845C357.402 574.363 357.426 575.069 357.427 576.004Z" fill="#F8F8F8"/>
<path d="M550.991 766.63C546.843 770.459 542.96 774.053 539.115 777.613C531.583 772.543 531.629 766.618 537.805 760.991C545.747 753.757 552.837 745.593 560.399 737.934C562.255 736.054 563.474 732.073 567.438 734.912C570.979 737.449 572.474 742.659 569.878 745.722C563.884 752.794 557.489 759.525 550.991 766.63Z" fill="#F7F7F7"/>
<path d="M269.412 347.818C272.949 351.369 276.426 354.509 279.416 358.06C280.321 359.135 280.681 362.161 279.924 362.907C274.297 368.451 268.325 373.646 261.25 380.047C258.249 363.421 255.486 348.114 252.723 332.807C253.184 332.519 253.645 332.231 254.107 331.943C259.126 337.15 264.145 342.358 269.412 347.818Z" fill="#F7F7F7"/>
<path d="M236.59 642.658C236.313 636.552 235.838 630.906 235.926 625.269C235.945 623.998 237.707 622.052 239.045 621.637C242.915 620.437 246.977 619.86 251.097 619.01C253.307 627.172 255.399 634.899 257.656 643.235C250.949 645.118 244.097 647.041 236.596 649.146C236.596 646.703 236.596 644.913 236.59 642.658Z" fill="#F7F7F7"/>
<path d="M198.994 489.345C199.677 485.469 199.328 481.223 201.264 478.813C204.972 474.197 212.517 476.365 214.225 482.08C215.063 484.888 215.272 487.883 215.813 491.073C210.332 492.836 205.102 494.519 198.994 496.484C198.994 493.923 198.994 491.864 198.994 489.345Z" fill="#F3F3F3"/>
</svg>
